<svg height="118" viewBox="0 0 118 118" width="118" xmlns="http://www.w3.org/2000/svg"><g fill="#d8d8d8" fill-rule="evenodd"><rect height="10" rx="2" width="10"/><rect height="10" rx="2" width="10" x="12"/><rect height="10" rx="2" width="10" x="24"/><rect height="10" rx="2" width="10" x="36"/><rect height="10" rx="2" width="10" x="48"/><rect height="10" rx="2" width="10" x="60"/><rect height="10" rx="2" width="10" x="72"/><rect height="10" rx="2" width="10" x="84"/><rect height="10" rx="2" width="10" x="96"/><rect height="10" rx="2" width="10" x="108"/><rect height="10" rx="2" width="10" y="12"/><rect height="10" rx="2" width="10" x="12" y="12"/><rect height="10" rx="2" width="10" x="24" y="12"/><rect height="10" rx="2" width="10" x="36" y="12"/><rect height="10" rx="2" width="10" x="48" y="12"/><rect height="10" rx="2" width="10" x="60" y="12"/><rect height="10" rx="2" width="10" x="72" y="12"/><rect height="10" rx="2" width="10" x="84" y="12"/><rect height="10" rx="2" width="10" x="96" y="12"/><rect height="10" rx="2" width="10" x="108" y="12"/><rect height="10" rx="2" width="10" y="24"/><rect height="10" rx="2" width="10" x="12" y="24"/><rect height="10" rx="2" width="10" x="24" y="24"/><rect height="10" rx="2" width="10" x="36" y="24"/><rect height="10" rx="2" width="10" x="48" y="24"/><rect height="10" rx="2" width="10" x="60" y="24"/><rect height="10" rx="2" width="10" x="72" y="24"/><rect height="10" rx="2" width="10" x="84" y="24"/><rect height="10" rx="2" width="10" x="96" y="24"/><rect height="10" rx="2" width="10" x="108" y="24"/><rect height="10" rx="2" width="10" y="36"/><rect height="10" rx="2" width="10" x="12" y="36"/><rect height="10" rx="2" width="10" x="24" y="36"/><rect height="10" rx="2" width="10" x="36" y="36"/><rect height="10" rx="2" width="10" x="48" y="36"/><rect height="10" rx="2" width="10" x="60" y="36"/><rect height="10" rx="2" width="10" x="72" y="36"/><rect height="10" rx="2" width="10" x="84" y="36"/><rect height="10" rx="2" width="10" x="96" y="36"/><rect height="10" rx="2" width="10" x="108" y="36"/><rect height="10" rx="2" width="10" y="48"/><rect height="10" rx="2" width="10" x="12" y="48"/><rect height="10" rx="2" width="10" x="24" y="48"/><rect height="10" rx="2" width="10" x="36" y="48"/><rect height="10" rx="2" width="10" x="48" y="48"/><rect height="10" rx="2" width="10" x="60" y="48"/><rect height="10" rx="2" width="10" x="72" y="48"/><rect height="10" rx="2" width="10" x="84" y="48"/><rect height="10" rx="2" width="10" x="96" y="48"/><rect height="10" rx="2" width="10" x="108" y="48"/><rect height="10" rx="2" width="10" y="60"/><rect height="10" rx="2" width="10" x="12" y="60"/><rect height="10" rx="2" width="10" x="24" y="60"/><rect height="10" rx="2" width="10" x="36" y="60"/><rect height="10" rx="2" width="10" x="48" y="60"/><rect height="10" rx="2" width="10" x="60" y="60"/><rect height="10" rx="2" width="10" x="72" y="60"/><rect height="10" rx="2" width="10" x="84" y="60"/><rect height="10" rx="2" width="10" x="96" y="60"/><rect height="10" rx="2" width="10" x="108" y="60"/><rect height="10" rx="2" width="10" y="72"/><rect height="10" rx="2" width="10" x="12" y="72"/><rect height="10" rx="2" width="10" x="24" y="72"/><rect height="10" rx="2" width="10" x="36" y="72"/><rect height="10" rx="2" width="10" x="48" y="72"/><rect height="10" rx="2" width="10" x="60" y="72"/><rect height="10" rx="2" width="10" x="72" y="72"/><rect height="10" rx="2" width="10" x="84" y="72"/><rect height="10" rx="2" width="10" x="96" y="72"/><rect height="10" rx="2" width="10" x="108" y="72"/><rect height="10" rx="2" width="10" y="84"/><rect height="10" rx="2" width="10" x="12" y="84"/><rect height="10" rx="2" width="10" x="24" y="84"/><rect height="10" rx="2" width="10" x="36" y="84"/><rect height="10" rx="2" width="10" x="48" y="84"/><rect height="10" rx="2" width="10" x="60" y="84"/><rect height="10" rx="2" width="10" x="72" y="84"/><rect height="10" rx="2" width="10" x="84" y="84"/><rect height="10" rx="2" width="10" x="96" y="84"/><rect height="10" rx="2" width="10" x="108" y="84"/><rect height="10" rx="2" width="10" y="96"/><rect height="10" rx="2" width="10" x="12" y="96"/><rect height="10" rx="2" width="10" x="24" y="96"/><rect height="10" rx="2" width="10" x="36" y="96"/><rect height="10" rx="2" width="10" x="48" y="96"/><rect height="10" rx="2" width="10" x="60" y="96"/><rect height="10" rx="2" width="10" x="72" y="96"/><rect height="10" rx="2" width="10" x="84" y="96"/><rect height="10" rx="2" width="10" x="96" y="96"/><rect height="10" rx="2" width="10" x="108" y="96"/><rect height="10" rx="2" width="10" y="108"/><rect height="10" rx="2" width="10" x="12" y="108"/><rect height="10" rx="2" width="10" x="24" y="108"/><rect height="10" rx="2" width="10" x="36" y="108"/><rect height="10" rx="2" width="10" x="48" y="108"/><rect height="10" rx="2" width="10" x="60" y="108"/><rect height="10" rx="2" width="10" x="72" y="108"/><rect height="10" rx="2" width="10" x="84" y="108"/><rect height="10" rx="2" width="10" x="96" y="108"/><rect height="10" rx="2" width="10" x="108" y="108"/></g>
<script><![CDATA[
const TILE_COLOR="#4ebeff";let biome2dArr=[1,1,0,0,0,0,0,0,0,0,1,1,0,0,0,0,0,0,0,0,0,0,0,0,0,0,0,0,0,0,0,0,0,0,0,0,0,0,0,0,0,0,0,0,0,0,0,0,0,0,0,0,0,0,0,0,0,0,0,0,0,0,0,0,0,0,0,0,0,0,0,0,0,0,0,0,0,0,0,0,0,0,0,0,0,0,0,0,0,0,0,0,0,0,0,0,0,0,0,0],biome2dArrNext=[];const neighborsArr=[-11,-10,-9,-1,1,9,10,11],tileNodes=document.querySelectorAll("rect");let colonyPlaced=!1;function run(){colonyPlaced||(placeRandomColonies(),colonyPlaced=!0),manageCells(),window.setTimeout(run,1e3)}function placeRandomColonies(){let e=0;for(;e<60;){var r=o(0,100);biome2dArr[r]=1,tileNodes[r].style.fill=TILE_COLOR;for(let e=0;e<neighborsArr.length;e++)1===o(0,2)&&biome2dArr[r+e]&&(biome2dArr[r+e]=1,tileNodes[r+e].style.fill=TILE_COLOR);e++}function o(e,r){return e=Math.ceil(e),r=Math.floor(r),Math.floor(Math.random()*(r-e)+e)}}function manageCells(){for(var o=0;o<biome2dArr.length;o++){0===biome2dArr[o]&&(biome2dArrNext[o]=0),1===biome2dArr[o]&&(biome2dArrNext[o]=1);let r=0;for(let e=0;e<neighborsArr.length&&(biome2dArr[o+neighborsArr[e]]&&1===biome2dArr[o+neighborsArr[e]]&&r++,!(3<r));e++);if((r<2||3<r)&&(biome2dArrNext[o]=0),3===r&&(biome2dArrNext[o]=1),99===o){biome2dArr=biome2dArrNext,biome2dArrNext=[];for(var e=0;e<biome2dArr.length;e++)1===biome2dArr[e]&&(tileNodes[e].style.fill=TILE_COLOR),1!==biome2dArr[e]&&(tileNodes[e].style="");biome2dArr.includes(1)||(colonyPlaced=!1)}}}run();
]]></script>
</svg>