<svg width="118px" height="118px" viewBox="0 0 118 118" version="1.1" xmlns="http://www.w3.org/2000/svg" xmlns:xlink="http://www.w3.org/1999/xlink">
    <g stroke="none" stroke-width="1" fill="none" fill-rule="evenodd">
        <g fill="#D8D8D8">
            <rect x="0" y="0" width="10" height="10" rx="2"></rect>
            <rect x="12" y="0" width="10" height="10" rx="2"></rect>
            <rect x="24" y="0" width="10" height="10" rx="2"></rect>
            <rect x="36" y="0" width="10" height="10" rx="2"></rect>
            <rect x="48" y="0" width="10" height="10" rx="2"></rect>
            <rect x="60" y="0" width="10" height="10" rx="2"></rect>
            <rect x="72" y="0" width="10" height="10" rx="2"></rect>
            <rect x="84" y="0" width="10" height="10" rx="2"></rect>
            <rect x="96" y="0" width="10" height="10" rx="2"></rect>
            <rect x="108" y="0" width="10" height="10" rx="2"></rect>
            <rect x="0" y="12" width="10" height="10" rx="2"></rect>
            <rect x="12" y="12" width="10" height="10" rx="2"></rect>
            <rect x="24" y="12" width="10" height="10" rx="2"></rect>
            <rect x="36" y="12" width="10" height="10" rx="2"></rect>
            <rect x="48" y="12" width="10" height="10" rx="2"></rect>
            <rect x="60" y="12" width="10" height="10" rx="2"></rect>
            <rect x="72" y="12" width="10" height="10" rx="2"></rect>
            <rect x="84" y="12" width="10" height="10" rx="2"></rect>
            <rect x="96" y="12" width="10" height="10" rx="2"></rect>
            <rect x="108" y="12" width="10" height="10" rx="2"></rect>
            <rect x="0" y="24" width="10" height="10" rx="2"></rect>
            <rect x="12" y="24" width="10" height="10" rx="2"></rect>
            <rect x="24" y="24" width="10" height="10" rx="2"></rect>
            <rect x="36" y="24" width="10" height="10" rx="2"></rect>
            <rect x="48" y="24" width="10" height="10" rx="2"></rect>
            <rect x="60" y="24" width="10" height="10" rx="2"></rect>
            <rect x="72" y="24" width="10" height="10" rx="2"></rect>
            <rect x="84" y="24" width="10" height="10" rx="2"></rect>
            <rect x="96" y="24" width="10" height="10" rx="2"></rect>
            <rect x="108" y="24" width="10" height="10" rx="2"></rect>
            <rect x="0" y="36" width="10" height="10" rx="2"></rect>
            <rect x="12" y="36" width="10" height="10" rx="2"></rect>
            <rect x="24" y="36" width="10" height="10" rx="2"></rect>
            <rect x="36" y="36" width="10" height="10" rx="2"></rect>
            <rect x="48" y="36" width="10" height="10" rx="2"></rect>
            <rect x="60" y="36" width="10" height="10" rx="2"></rect>
            <rect x="72" y="36" width="10" height="10" rx="2"></rect>
            <rect x="84" y="36" width="10" height="10" rx="2"></rect>
            <rect x="96" y="36" width="10" height="10" rx="2"></rect>
            <rect x="108" y="36" width="10" height="10" rx="2"></rect>
            <rect x="0" y="48" width="10" height="10" rx="2"></rect>
            <rect x="12" y="48" width="10" height="10" rx="2"></rect>
            <rect x="24" y="48" width="10" height="10" rx="2"></rect>
            <rect x="36" y="48" width="10" height="10" rx="2"></rect>
            <rect x="48" y="48" width="10" height="10" rx="2"></rect>
            <rect x="60" y="48" width="10" height="10" rx="2"></rect>
            <rect x="72" y="48" width="10" height="10" rx="2"></rect>
            <rect x="84" y="48" width="10" height="10" rx="2"></rect>
            <rect x="96" y="48" width="10" height="10" rx="2"></rect>
            <rect x="108" y="48" width="10" height="10" rx="2"></rect>
            <rect x="0" y="60" width="10" height="10" rx="2"></rect>
            <rect x="12" y="60" width="10" height="10" rx="2"></rect>
            <rect x="24" y="60" width="10" height="10" rx="2"></rect>
            <rect x="36" y="60" width="10" height="10" rx="2"></rect>
            <rect x="48" y="60" width="10" height="10" rx="2"></rect>
            <rect x="60" y="60" width="10" height="10" rx="2"></rect>
            <rect x="72" y="60" width="10" height="10" rx="2"></rect>
            <rect x="84" y="60" width="10" height="10" rx="2"></rect>
            <rect x="96" y="60" width="10" height="10" rx="2"></rect>
            <rect x="108" y="60" width="10" height="10" rx="2"></rect>
            <rect x="0" y="72" width="10" height="10" rx="2"></rect>
            <rect x="12" y="72" width="10" height="10" rx="2"></rect>
            <rect x="24" y="72" width="10" height="10" rx="2"></rect>
            <rect x="36" y="72" width="10" height="10" rx="2"></rect>
            <rect x="48" y="72" width="10" height="10" rx="2"></rect>
            <rect x="60" y="72" width="10" height="10" rx="2"></rect>
            <rect x="72" y="72" width="10" height="10" rx="2"></rect>
            <rect x="84" y="72" width="10" height="10" rx="2"></rect>
            <rect x="96" y="72" width="10" height="10" rx="2"></rect>
            <rect x="108" y="72" width="10" height="10" rx="2"></rect>
            <rect x="0" y="84" width="10" height="10" rx="2"></rect>
            <rect x="12" y="84" width="10" height="10" rx="2"></rect>
            <rect x="24" y="84" width="10" height="10" rx="2"></rect>
            <rect x="36" y="84" width="10" height="10" rx="2"></rect>
            <rect x="48" y="84" width="10" height="10" rx="2"></rect>
            <rect x="60" y="84" width="10" height="10" rx="2"></rect>
            <rect x="72" y="84" width="10" height="10" rx="2"></rect>
            <rect x="84" y="84" width="10" height="10" rx="2"></rect>
            <rect x="96" y="84" width="10" height="10" rx="2"></rect>
            <rect x="108" y="84" width="10" height="10" rx="2"></rect>
            <rect x="0" y="96" width="10" height="10" rx="2"></rect>
            <rect x="12" y="96" width="10" height="10" rx="2"></rect>
            <rect x="24" y="96" width="10" height="10" rx="2"></rect>
            <rect x="36" y="96" width="10" height="10" rx="2"></rect>
            <rect x="48" y="96" width="10" height="10" rx="2"></rect>
            <rect x="60" y="96" width="10" height="10" rx="2"></rect>
            <rect x="72" y="96" width="10" height="10" rx="2"></rect>
            <rect x="84" y="96" width="10" height="10" rx="2"></rect>
            <rect x="96" y="96" width="10" height="10" rx="2"></rect>
            <rect x="108" y="96" width="10" height="10" rx="2"></rect>
            <rect x="0" y="108" width="10" height="10" rx="2"></rect>
            <rect x="12" y="108" width="10" height="10" rx="2"></rect>
            <rect x="24" y="108" width="10" height="10" rx="2"></rect>
            <rect x="36" y="108" width="10" height="10" rx="2"></rect>
            <rect x="48" y="108" width="10" height="10" rx="2"></rect>
            <rect x="60" y="108" width="10" height="10" rx="2"></rect>
            <rect x="72" y="108" width="10" height="10" rx="2"></rect>
            <rect x="84" y="108" width="10" height="10" rx="2"></rect>
            <rect x="96" y="108" width="10" height="10" rx="2"></rect>
            <rect x="108" y="108" width="10" height="10" rx="2"></rect>
        </g>
    </g>
    <script><![CDATA[
      const TILE_COLOR = "#4ebeff";
      let biome2dArr = [
        1, 1, 0, 0, 0, 0, 0, 0, 0, 0,
        1, 1, 0, 0, 0, 0, 0, 0, 0, 0,
        0, 0, 0, 0, 0, 0, 0, 0, 0, 0,
        0, 0, 0, 0, 0, 0, 0, 0, 0, 0,
        0, 0, 0, 0, 0, 0, 0, 0, 0, 0,
        0, 0, 0, 0, 0, 0, 0, 0, 0, 0,
        0, 0, 0, 0, 0, 0, 0, 0, 0, 0,
        0, 0, 0, 0, 0, 0, 0, 0, 0, 0,
        0, 0, 0, 0, 0, 0, 0, 0, 0, 0,
        0, 0, 0, 0, 0, 0, 0, 0, 0, 0,
      ];

      let biome2dArrNext = [];
      const neighborsArr = [-11, -10, -9, -1, 1, 9, 10, 11]
      const tileNodes = document.querySelectorAll("rect");
      let colonyPlaced = false;

      run ();

      function run () {
        if (!colonyPlaced) {
          placeRandomColonies();
          colonyPlaced = true;
        }
        manageCells();
        tick();
        function tick () {
          window.setTimeout(run, 1000);
        }
      }

      function placeRandomColonies () {
        let k = 0;
        while (k < 60) {
          const randIndex = getRandomInt(0, 100);
          biome2dArr[randIndex] = 1;
          tileNodes[randIndex].style.fill=TILE_COLOR;
          for (let i = 0; i < neighborsArr.length; i++) {
            if (getRandomInt(0, 2) === 1) {
              if (biome2dArr[randIndex+i]) {
                biome2dArr[randIndex+i] = 1;
                tileNodes[randIndex+i].style.fill=TILE_COLOR;
              }
            }
          }
          k++;
        }

        function getRandomInt(min, max) {
          min = Math.ceil(min);
          max = Math.floor(max);
          return Math.floor(Math.random() * (max - min) + min);
        }
      }

      function manageCells() {
        for (var j = 0; j < biome2dArr.length; j++) {
          if (biome2dArr[j] === 0) biome2dArrNext[j] = 0;
          if (biome2dArr[j] === 1) biome2dArrNext[j] = 1;
          let count = 0;
          for (let i = 0; i < neighborsArr.length; i++) {
              if (biome2dArr[j+neighborsArr[i]] && 
                  biome2dArr[j+neighborsArr[i]] === 1) count++;
              if (count > 3) break;
          }
          if (count < 2 || count > 3) biome2dArrNext[j] = 0;
          if (count === 3) biome2dArrNext[j] = 1;
        // If all cells update DOM
          if (j === 99) {
            biome2dArr = biome2dArrNext;
            biome2dArrNext = [];
            for (var k = 0; k < biome2dArr.length; k++) {
              if(biome2dArr[k] === 1) tileNodes[k].style.fill=TILE_COLOR;
              if(biome2dArr[k] !== 1) tileNodes[k].style ='';
            }
            // If no cells left restart
            if (!biome2dArr.includes(1)) colonyPlaced = false;

          }
        }

      }
    ]]></script>
        
</svg>